<svg xmlns="http://www.w3.org/2000/svg" version="1.1" xmlns:xlink="http://www.w3.org/1999/xlink" width="200" height="200"><svg xmlns="http://www.w3.org/2000/svg" version="1.1" xmlns:xlink="http://www.w3.org/1999/xlink" viewBox="0 0 200 200"><rect width="200" height="200" fill="url('#gradient')"></rect><defs><linearGradient id="SvgjsLinearGradient1006" gradientTransform="rotate(87 0.5 0.5)"><stop offset="0%" stop-color="#ff000e"></stop><stop offset="100%" stop-color="#b400ff"></stop></linearGradient></defs><g><g fill="#ffffff" transform="matrix(8.17746228926353,0,0,8.17746228926353,5.267067427273446,158.9614174418885)" stroke="#000000" stroke-width="0.2"><path d="M10.79-2.54L10.79 0L0.87 0L0.87-2.15L5.44-6.95Q7.13-8.88 7.13-10.01L7.13-10.01Q7.13-10.93 6.73-11.41Q6.33-11.88 5.57-11.88L5.57-11.88Q4.81-11.88 4.35-11.25Q3.88-10.61 3.88-9.65L3.88-9.65L0.58-9.65Q0.58-10.96 1.23-12.07Q1.88-13.17 3.05-13.80Q4.21-14.42 5.64-14.42L5.64-14.42Q7.95-14.42 9.19-13.36Q10.44-12.29 10.44-10.30L10.44-10.30Q10.44-9.46 10.13-8.67Q9.81-7.87 9.16-7.00Q8.50-6.12 7.03-4.66L7.03-4.66L5.20-2.54L10.79-2.54ZM21.14-14.22L21.14-5.56L22.59-5.56L22.59-3.02L21.14-3.02L21.14 0L17.85 0L17.85-3.02L12.35-3.02L12.16-5.03L17.85-14.19L17.85-14.22L21.14-14.22ZM17.65-9.60L15.29-5.56L17.85-5.56L17.85-9.93L17.65-9.60Z"></path></g></g></svg><style>@media (prefers-color-scheme: light) { :root { filter: none; } }
@media (prefers-color-scheme: dark) { :root { filter: none; } }
</style></svg>